G04 ================== begin FILE IDENTIFICATION RECORD ==================*
G04 Layout Name:  ISL6236A PCB V1I1.brd*
G04 Film Name:    ISL6236A_V1I1_10-BOTTOM_SOLDER*
G04 File Format:  Gerber RS274X*
G04 File Origin:  Cadence Allegro 17.2-S025*
G04 Origin Date:  Wed Feb 21 15:58:05 2018*
G04 *
G04 Layer:  PIN/SOLDERMASK_BOTTOM*
G04 Layer:  BOARD GEOMETRY/SOLDERMASK_BOTTOM*
G04 *
G04 Offset:    (0.0000 0.0000)*
G04 Mirror:    No*
G04 Mode:      Positive*
G04 Rotation:  0*
G04 FullContactRelief:  No*
G04 UndefLineWidth:     0.0000*
G04 ================== end FILE IDENTIFICATION RECORD ====================*
%FSLAX25Y25*MOMM*%
%IR0*IPPOS*OFA0.00000B0.00000*MIA0B0*SFA1.00000B1.00000*%
%ADD16R,1.5X.9*%
%ADD13R,.9X1.5*%
%ADD17R,3.4X3.4*%
%ADD20R,1.15X1.9*%
%ADD19R,.33X.7*%
%ADD18R,.7X.33*%
%ADD14R,1.15X1.55*%
%ADD12C,4.2*%
%ADD11C,2.032*%
%ADD10C,7.6*%
%ADD15C,1.2192*%
%LPD*%
G75*
G54D10*
X400000Y400000D03*
Y4600000D03*
X4600000Y400000D03*
Y4600000D03*
G54D11*
X200000Y900000D03*
Y4100000D03*
X4100000Y4200000D03*
X4800000Y900000D03*
G54D20*
X3005000Y2170000D03*
X3315000D03*
G54D12*
X500000Y2000000D03*
Y3000000D03*
X4500000Y1400000D03*
Y2000000D03*
Y3000000D03*
Y3600000D03*
G54D13*
X1335000Y2470000D03*
Y2700000D03*
Y2930000D03*
Y3250000D03*
Y3480000D03*
X1525000Y2470000D03*
Y2700000D03*
Y2930000D03*
Y3250000D03*
Y3480000D03*
X1815000Y2240000D03*
Y2740000D03*
X2005000Y2240000D03*
Y2740000D03*
X2585000Y3350000D03*
Y3580000D03*
Y3810000D03*
Y4040000D03*
X2775000Y3350000D03*
Y3580000D03*
Y3810000D03*
Y4040000D03*
X2990000Y3580000D03*
X3180000D03*
G54D14*
X1795000Y2010000D03*
Y2470000D03*
Y2970000D03*
X1985000Y2010000D03*
Y2470000D03*
Y2970000D03*
X3010000Y2427500D03*
Y2660000D03*
Y2960000D03*
Y3350000D03*
X3200000Y2427500D03*
Y2660000D03*
Y2960000D03*
Y3350000D03*
G54D15*
X1770000Y3250000D03*
Y3480000D03*
X2260000Y2110000D03*
G54D16*
Y1765000D03*
Y1955000D03*
X2500000Y1765000D03*
Y1955000D03*
X2740000Y1765000D03*
Y1955000D03*
X2620000Y2965000D03*
Y3155000D03*
X2980000Y1765000D03*
Y1955000D03*
X3220000Y1765000D03*
Y1955000D03*
G54D17*
X2500000Y2500000D03*
G54D18*
X2260000Y2325000D03*
Y2525000D03*
Y2475000D03*
Y2425000D03*
Y2375000D03*
Y2675000D03*
Y2625000D03*
Y2575000D03*
X2740000Y2325000D03*
Y2375000D03*
Y2425000D03*
Y2475000D03*
Y2525000D03*
Y2575000D03*
Y2625000D03*
Y2675000D03*
G54D19*
X2325000Y2260000D03*
Y2740000D03*
X2375000Y2260000D03*
X2425000D03*
X2475000D03*
X2525000D03*
Y2740000D03*
X2475000D03*
X2425000D03*
X2375000D03*
X2575000Y2260000D03*
X2625000D03*
X2675000D03*
Y2740000D03*
X2625000D03*
X2575000D03*
M02*
