G04 ================== begin FILE IDENTIFICATION RECORD ==================*
G04 Layout Name:  ISL6236A PCB V1I1.brd*
G04 Film Name:    ISL6236A_V1I1_05-L2*
G04 File Format:  Gerber RS274X*
G04 File Origin:  Cadence Allegro 17.2-S025*
G04 Origin Date:  Wed Feb 21 15:58:05 2018*
G04 *
G04 Layer:  ETCH/L2*
G04 Layer:  PIN/L2*
G04 Layer:  VIA CLASS/L2*
G04 *
G04 Offset:    (0.0000 0.0000)*
G04 Mirror:    No*
G04 Mode:      Positive*
G04 Rotation:  0*
G04 FullContactRelief:  No*
G04 UndefLineWidth:     0.0000*
G04 ================== end FILE IDENTIFICATION RECORD ====================*
%FSLAX25Y25*MOMM*%
%IR0*IPPOS*OFA0.00000B0.00000*MIA0B0*SFA1.00000B1.00000*%
%ADD12C,.6*%
%ADD11C,4.*%
%ADD10C,7.4*%
%ADD13C,1.5*%
%ADD15C,1.0004*%
%ADD14C,5.0004*%
G75*
%LPD*%
G75*
G36*
G01X4980000Y20000D02*
X20000D01*
Y4980000D01*
X4980000D01*
Y20000D01*
G37*
%LPC*%
G75*
G36*
G01X2116750Y2597800D02*
G02X2081440Y2628700I-46750J-17797D01*
G03X2093250Y2642200I2317J9889D01*
G02X2128560Y2611300I46750J17797D01*
G03X2116750Y2597800I-2317J-9889D01*
G37*
G54D15*
X3800000Y3810000D03*
X3810000Y1190000D03*
X3100000Y2540000D03*
X3095000Y1955000D03*
X2905000Y3580000D03*
X3010000Y3110000D03*
X3005000Y2305000D03*
X2775000Y3695000D03*
X2790000Y2760000D03*
X2740000Y1680000D03*
X2560000Y2880000D03*
X2450000Y2090000D03*
X2300000Y3110000D03*
X2280000Y2840000D03*
X2350000Y2180000D03*
X2260000Y1680000D03*
X2100000Y2330000D03*
X2010000Y3830000D03*
X1985000Y3125000D03*
Y1865000D03*
X2010000Y1440000D03*
X1446800Y3709500D03*
Y1690500D03*
X1250000Y3480000D03*
Y3250000D03*
Y2930000D03*
X1220000Y2800000D03*
X1250000Y2470000D03*
X1189320Y4090500D03*
Y1309500D03*
G54D14*
X4500000Y3600000D03*
Y3000000D03*
Y2000000D03*
Y1400000D03*
X500000Y3000000D03*
Y2000000D03*
%LPD*%
G75*
G54D10*
X400000Y400000D03*
Y4600000D03*
X4600000Y400000D03*
Y4600000D03*
G54D11*
X500000Y2000000D03*
X4500000D03*
Y3000000D03*
G54D12*
X850000Y1700000D03*
Y1900000D03*
Y2100000D03*
Y3300000D03*
Y3500000D03*
Y3700000D03*
X950000Y1600000D03*
Y1800000D03*
Y2000000D03*
Y3400000D03*
Y3600000D03*
Y3800000D03*
X1189320Y1436500D03*
X1050000Y1500000D03*
X1189320Y1563500D03*
X1050000Y1700000D03*
X1150000Y1800000D03*
X1050000Y1900000D03*
X1150000Y2000000D03*
X1050000Y2100000D03*
Y3300000D03*
X1150000Y3400000D03*
X1050000Y3500000D03*
X1150000Y3600000D03*
X1050000Y3700000D03*
X1189320Y3836500D03*
X1050000Y3900000D03*
X1189320Y3963500D03*
X1470000Y2000000D03*
Y1910000D03*
Y2090000D03*
X1830000Y2360000D03*
X1760000D03*
X1970000Y4400000D03*
Y4310000D03*
Y4490000D03*
X2380000Y2380000D03*
Y2620000D03*
X2500000Y1680000D03*
X2480000Y2960000D03*
X2505000Y3155000D03*
X2620000Y2380000D03*
Y2620000D03*
X2740000Y2263500D03*
X2860000Y4040000D03*
X3235000Y3240000D03*
X3165000D03*
X3335000Y1955000D03*
X3410000Y2210000D03*
Y2130000D03*
X3290000Y2467500D03*
Y2387500D03*
Y2700000D03*
Y2620000D03*
Y3000000D03*
Y2920000D03*
X3630000Y1840000D03*
Y2080000D03*
X3720000Y2200000D03*
Y2800000D03*
X3630000Y2920000D03*
Y3160000D03*
X3880000Y2200000D03*
Y2800000D03*
X3970000Y1840000D03*
Y2080000D03*
Y2920000D03*
Y3160000D03*
G54D13*
G01X244900Y2000000D02*
X500000D01*
G01Y1744900D02*
Y2000000D01*
G01D02*
Y2255100D01*
G01Y2000000D02*
X755100D01*
G01X4244900D02*
X4500000D01*
G01X4244900Y3000000D02*
X4500000D01*
G01Y1744900D02*
Y2000000D01*
G01D02*
Y2255100D01*
G01Y2000000D02*
X4755100D01*
G01X4500000Y2744900D02*
Y3000000D01*
G01D02*
Y3255100D01*
G01Y3000000D02*
X4755100D01*
M02*
