G04 ================== begin FILE IDENTIFICATION RECORD ==================*
G04 Layout Name:  ISL6236A PCB V1I1.brd*
G04 Film Name:    ISL6236A_V1I1_01-TOP_OVERLAY*
G04 File Format:  Gerber RS274X*
G04 File Origin:  Cadence Allegro 17.2-S025*
G04 Origin Date:  Wed Feb 21 15:58:05 2018*
G04 *
G04 Layer:  MANUFACTURING/AUTOSILK_TOP*
G04 *
G04 Offset:    (0.0000 0.0000)*
G04 Mirror:    No*
G04 Mode:      Positive*
G04 Rotation:  0*
G04 FullContactRelief:  No*
G04 UndefLineWidth:     0.0000*
G04 ================== end FILE IDENTIFICATION RECORD ====================*
%FSLAX25Y25*MOMM*%
%IR0*IPPOS*OFA0.00000B0.00000*MIA0B0*SFA1.00000B1.00000*%
%ADD10C,.1001*%
%ADD11C,.2*%
%ADD12C,.5*%
%ADD13C,.2032*%
%ADD14C,.1999*%
G75*
%LPD*%
G75*
G54D10*
G01X1255860Y1779420D02*
X1334550D01*
X1318810Y1791090D01*
G01X1255860D02*
Y1767740D01*
G01Y4179420D02*
X1334550D01*
X1318810Y4191090D01*
G01X1255860D02*
Y4167740D01*
G54D11*
G01X56080Y1955400D02*
X64130Y1942700D01*
X73770Y1934230D01*
X85030Y1930000D01*
X97900Y1934230D01*
X107550Y1942700D01*
X117200Y1955400D01*
X120420Y1972330D01*
Y2057000D01*
G01X187190Y2035830D02*
X196840Y2048530D01*
X208100Y2054880D01*
X220970Y2057000D01*
X237050Y2052770D01*
X248310Y2042180D01*
X251530Y2029490D01*
X249920Y2016780D01*
X243480Y2006200D01*
X211320Y1985030D01*
X196840Y1970220D01*
X187190Y1949050D01*
X183970Y1930000D01*
X251530D01*
G01X56080Y2955400D02*
X64130Y2942700D01*
X73770Y2934230D01*
X85030Y2930000D01*
X97900Y2934230D01*
X107550Y2942700D01*
X117200Y2955400D01*
X120420Y2972330D01*
Y3057000D01*
G01X217750Y2930000D02*
Y3057000D01*
X198450Y3031600D01*
G01Y2930000D02*
X237050D01*
G01X764170Y3285040D02*
X785330Y3301120D01*
X806500Y3309170D01*
X891160D01*
X912330Y3301120D01*
X933500Y3285040D01*
G01X823430Y3181280D02*
X812850Y3168410D01*
X806500Y3153930D01*
Y3141070D01*
X812850Y3128200D01*
X823430Y3118550D01*
X838250Y3113720D01*
X853060Y3116940D01*
X865770Y3124980D01*
X874230Y3139460D01*
X878470Y3158760D01*
X886930Y3170020D01*
X901750Y3174840D01*
X916570Y3171620D01*
X927150Y3163580D01*
X933500Y3152330D01*
Y3141070D01*
X929270Y3129810D01*
X918680Y3120160D01*
G01X806500Y2985830D02*
Y3050170D01*
X933500D01*
Y2985830D01*
G01X872120Y3011570D02*
Y3050170D01*
G01X806500Y2856330D02*
Y2920670D01*
X933500D01*
Y2856330D01*
G01X872120Y2882070D02*
Y2920670D01*
G01X933500Y2669710D02*
X806500Y2629500D01*
X933500Y2589290D01*
G01X806500Y2540210D02*
X933500Y2500000D01*
X806500Y2459790D01*
G01X850950Y2474270D02*
Y2525740D01*
G01X806500Y2402670D02*
X933500D01*
Y2362460D01*
X927150Y2349590D01*
X918680Y2341550D01*
X901750Y2338330D01*
X884820Y2341550D01*
X874230Y2351200D01*
X867880Y2362460D01*
Y2402670D01*
G01Y2362460D02*
X806500Y2338330D01*
G01X933500Y2260300D02*
Y2221700D01*
G01Y2241000D02*
X806500D01*
G01Y2260300D02*
Y2221700D01*
G01Y2151710D02*
X933500Y2111500D01*
X806500Y2071290D01*
G01X850950Y2085770D02*
Y2137240D01*
G01X806500Y2018990D02*
X933500D01*
X806500Y1945010D01*
X933500D01*
G01Y1852500D02*
X806500D01*
G01X933500Y1889490D02*
Y1815510D01*
G01X764170Y1714960D02*
X785330Y1698880D01*
X806500Y1690830D01*
X891160D01*
X912330Y1698880D01*
X933500Y1714960D01*
G01X1157000Y3166800D02*
Y3128200D01*
G01Y3147500D02*
X1030000D01*
G01Y3166800D02*
Y3128200D01*
G01Y3054990D02*
X1157000D01*
X1030000Y2981010D01*
X1157000D01*
G01X1030000Y2920670D02*
X1157000D01*
Y2882070D01*
X1150650Y2869200D01*
X1135830Y2859550D01*
X1118900Y2856330D01*
X1101970Y2859550D01*
X1089270Y2867590D01*
X1082910Y2882070D01*
Y2920670D01*
G01X1157000Y2794380D02*
X1065980D01*
X1046930Y2787950D01*
X1034230Y2775080D01*
X1030000Y2759000D01*
X1034230Y2742920D01*
X1046930Y2730050D01*
X1065980Y2723620D01*
X1157000D01*
G01Y2629500D02*
X1030000D01*
G01X1157000Y2666490D02*
Y2592510D01*
G01X1030000Y2402670D02*
X1157000D01*
Y2364070D01*
X1150650Y2351200D01*
X1135830Y2341550D01*
X1118900Y2338330D01*
X1101970Y2341550D01*
X1089270Y2349590D01*
X1082910Y2364070D01*
Y2402670D01*
G01X1030000Y2241000D02*
X1032120Y2253870D01*
X1040580Y2265120D01*
X1053280Y2274780D01*
X1068100Y2281210D01*
X1085030Y2284430D01*
X1101970D01*
X1118900Y2281210D01*
X1133720Y2274780D01*
X1146420Y2265120D01*
X1154880Y2253870D01*
X1157000Y2241000D01*
X1154880Y2228130D01*
X1146420Y2216880D01*
X1133720Y2207220D01*
X1118900Y2200790D01*
X1101970Y2197570D01*
X1085030D01*
X1068100Y2200790D01*
X1053280Y2207220D01*
X1040580Y2216880D01*
X1032120Y2228130D01*
X1030000Y2241000D01*
G01X1157000Y2159750D02*
X1030000Y2137240D01*
X1157000Y2111500D01*
X1030000Y2085770D01*
X1157000Y2063250D01*
G01X1030000Y1949830D02*
Y2014170D01*
X1157000D01*
Y1949830D01*
G01X1095620Y1975570D02*
Y2014170D01*
G01X1030000Y1884670D02*
X1157000D01*
Y1844460D01*
X1150650Y1831590D01*
X1142180Y1823550D01*
X1125250Y1820330D01*
X1108320Y1823550D01*
X1097730Y1833200D01*
X1091380Y1844460D01*
Y1884670D01*
G01Y1844460D02*
X1030000Y1820330D01*
G01X1185700Y4847000D02*
X1224300D01*
G01X1205000D02*
Y4720000D01*
G01X1185700D02*
X1224300D01*
G01X1300720Y4736930D02*
X1313590Y4726350D01*
X1328070Y4720000D01*
X1340930D01*
X1353800Y4726350D01*
X1363450Y4736930D01*
X1368280Y4751750D01*
X1365060Y4766560D01*
X1357020Y4779270D01*
X1342540Y4787730D01*
X1323240Y4791970D01*
X1311980Y4800430D01*
X1307160Y4815250D01*
X1310380Y4830070D01*
X1318420Y4840650D01*
X1329670Y4847000D01*
X1340930D01*
X1352190Y4842770D01*
X1361840Y4832180D01*
G01X1431830Y4847000D02*
Y4720000D01*
X1496170D01*
G01X1562940Y4772910D02*
X1574200Y4787730D01*
X1583850Y4796200D01*
X1596720Y4800430D01*
X1607980Y4796200D01*
X1616020Y4787730D01*
X1622450Y4775030D01*
X1624060Y4760220D01*
X1622450Y4747510D01*
X1616020Y4734810D01*
X1606370Y4724230D01*
X1595110Y4720000D01*
X1582240Y4724230D01*
X1570980Y4736930D01*
X1564550Y4755980D01*
X1562940Y4777150D01*
X1566160Y4804660D01*
X1570980Y4819490D01*
X1579020Y4834300D01*
X1590280Y4844880D01*
X1601540Y4847000D01*
X1612800Y4842770D01*
X1620840Y4832180D01*
G01X1692440Y4825830D02*
X1702090Y4838530D01*
X1713350Y4844880D01*
X1726220Y4847000D01*
X1742300Y4842770D01*
X1753560Y4832180D01*
X1756780Y4819490D01*
X1755170Y4806780D01*
X1748730Y4796200D01*
X1716570Y4775030D01*
X1702090Y4760220D01*
X1692440Y4739050D01*
X1689220Y4720000D01*
X1756780D01*
G01X1817120Y4745400D02*
X1826760Y4730580D01*
X1839630Y4722120D01*
X1854110Y4720000D01*
X1866980Y4722120D01*
X1879840Y4732700D01*
X1887880Y4745400D01*
X1889490Y4758100D01*
X1886280Y4772910D01*
X1875020Y4783500D01*
X1863760Y4787730D01*
X1849280D01*
G01X1863760D02*
X1873410Y4794080D01*
X1881450Y4804660D01*
X1884670Y4817370D01*
X1881450Y4830070D01*
X1873410Y4840650D01*
X1858930Y4847000D01*
X1844460Y4844880D01*
X1829980Y4836420D01*
G01X1951440Y4772910D02*
X1962700Y4787730D01*
X1972350Y4796200D01*
X1985220Y4800430D01*
X1996480Y4796200D01*
X2004520Y4787730D01*
X2010950Y4775030D01*
X2012560Y4760220D01*
X2010950Y4747510D01*
X2004520Y4734810D01*
X1994870Y4724230D01*
X1983610Y4720000D01*
X1970740Y4724230D01*
X1959480Y4736930D01*
X1953050Y4755980D01*
X1951440Y4777150D01*
X1954660Y4804660D01*
X1959480Y4819490D01*
X1967520Y4834300D01*
X1978780Y4844880D01*
X1990040Y4847000D01*
X2001300Y4842770D01*
X2009340Y4832180D01*
G01X2071290Y4720000D02*
X2111500Y4847000D01*
X2151710Y4720000D01*
G01X2137230Y4764450D02*
X2085760D01*
G01X2338330Y4720000D02*
Y4847000D01*
X2376930D01*
X2389800Y4840650D01*
X2399450Y4825830D01*
X2402670Y4808900D01*
X2399450Y4791970D01*
X2391410Y4779270D01*
X2376930Y4772910D01*
X2338330D01*
G01X2467830Y4720000D02*
Y4847000D01*
X2508040D01*
X2520910Y4840650D01*
X2528950Y4832180D01*
X2532170Y4815250D01*
X2528950Y4798320D01*
X2519300Y4787730D01*
X2508040Y4781380D01*
X2467830D01*
G01X2508040D02*
X2532170Y4720000D01*
G01X2629500D02*
X2616630Y4722120D01*
X2605380Y4730580D01*
X2595720Y4743280D01*
X2589290Y4758100D01*
X2586070Y4775030D01*
Y4791970D01*
X2589290Y4808900D01*
X2595720Y4823720D01*
X2605380Y4836420D01*
X2616630Y4844880D01*
X2629500Y4847000D01*
X2642370Y4844880D01*
X2653620Y4836420D01*
X2663280Y4823720D01*
X2669710Y4808900D01*
X2672930Y4791970D01*
Y4775030D01*
X2669710Y4758100D01*
X2663280Y4743280D01*
X2653620Y4730580D01*
X2642370Y4722120D01*
X2629500Y4720000D01*
G01X2726830Y4745400D02*
X2734880Y4732700D01*
X2744520Y4724230D01*
X2755780Y4720000D01*
X2768650Y4724230D01*
X2778300Y4732700D01*
X2787950Y4745400D01*
X2791170Y4762330D01*
Y4847000D01*
G01X2920670Y4720000D02*
X2856330D01*
Y4847000D01*
X2920670D01*
G01X2894930Y4785620D02*
X2856330D01*
G01X3053380Y4836420D02*
X3043730Y4842770D01*
X3032480Y4847000D01*
X3019610D01*
X3005130Y4840650D01*
X2993880Y4830070D01*
X2985830Y4817370D01*
X2979400Y4796200D01*
X2977790Y4777150D01*
X2981010Y4758100D01*
X2985830Y4745400D01*
X2995480Y4732700D01*
X3006740Y4724230D01*
X3018000Y4720000D01*
X3029260D01*
X3040520Y4724230D01*
X3050170Y4730580D01*
X3058210Y4739050D01*
G01X3147500Y4847000D02*
Y4720000D01*
G01X3110510Y4847000D02*
X3184490D01*
G01X3366290D02*
X3406500Y4720000D01*
X3446710Y4847000D01*
G01X3536000Y4720000D02*
Y4847000D01*
X3516700Y4821600D01*
G01Y4720000D02*
X3555300D01*
G01X3646200Y4847000D02*
X3684800D01*
G01X3665500D02*
Y4720000D01*
G01X3646200D02*
X3684800D01*
G01X3795000D02*
Y4847000D01*
X3775700Y4821600D01*
G01Y4720000D02*
X3814300D01*
G01X1283630Y4456420D02*
X1273980Y4462770D01*
X1262730Y4467000D01*
X1249860D01*
X1235380Y4460650D01*
X1224130Y4450070D01*
X1216080Y4437370D01*
X1209650Y4416200D01*
X1208040Y4397150D01*
X1211260Y4378100D01*
X1216080Y4365400D01*
X1225730Y4352700D01*
X1236990Y4344230D01*
X1248250Y4340000D01*
X1259510D01*
X1270770Y4344230D01*
X1280420Y4350580D01*
X1288460Y4359050D01*
G01X1347190Y4392910D02*
X1358450Y4407730D01*
X1368100Y4416200D01*
X1380970Y4420430D01*
X1392230Y4416200D01*
X1400270Y4407730D01*
X1406700Y4395030D01*
X1408310Y4380220D01*
X1406700Y4367510D01*
X1400270Y4354810D01*
X1390620Y4344230D01*
X1379360Y4340000D01*
X1366490Y4344230D01*
X1355230Y4356930D01*
X1348800Y4375980D01*
X1347190Y4397150D01*
X1350410Y4424660D01*
X1355230Y4439490D01*
X1363270Y4454300D01*
X1374530Y4464880D01*
X1385790Y4467000D01*
X1397050Y4462770D01*
X1405090Y4452180D01*
G01X1475000Y1835000D02*
X1965000D01*
Y2165000D01*
X1475000D01*
Y1835000D01*
G01X1965000Y4565000D02*
X1475000D01*
Y4235000D01*
X1965000D01*
Y4565000D01*
G01X1693630Y2326420D02*
X1683980Y2332770D01*
X1672730Y2337000D01*
X1659860D01*
X1645380Y2330650D01*
X1634130Y2320070D01*
X1626080Y2307370D01*
X1619650Y2286200D01*
X1618040Y2267150D01*
X1621260Y2248100D01*
X1626080Y2235400D01*
X1635730Y2222700D01*
X1646990Y2214230D01*
X1658250Y2210000D01*
X1669510D01*
X1680770Y2214230D01*
X1690420Y2220580D01*
X1698460Y2229050D01*
G01X1752370D02*
X1762010Y2218460D01*
X1773270Y2212120D01*
X1787750Y2210000D01*
X1802230Y2214230D01*
X1813480Y2222700D01*
X1821530Y2237510D01*
X1823130Y2254450D01*
X1819920Y2271380D01*
X1811870Y2281970D01*
X1800620Y2290430D01*
X1789360Y2292550D01*
X1778100Y2290430D01*
X1763630Y2281970D01*
X1768450Y2337000D01*
X1811870D01*
G01X2125000Y980000D02*
Y675000D01*
X3375000D01*
Y980000D01*
G01Y1925000D02*
X2125000D01*
Y1620000D01*
G01Y3075000D02*
X3375000D01*
Y3380000D01*
G01X2125000D02*
Y3075000D01*
G01X3375000Y4020000D02*
Y4325000D01*
X2125000D01*
Y4020000D01*
G01X2616080Y2097000D02*
Y1970000D01*
X2680420D01*
G01X2777750D02*
Y2097000D01*
X2758450Y2071600D01*
G01Y1970000D02*
X2797050D01*
G01X2636080Y4497000D02*
Y4370000D01*
X2700420D01*
G01X2767190Y4475830D02*
X2776840Y4488530D01*
X2788100Y4494880D01*
X2800970Y4497000D01*
X2817050Y4492770D01*
X2828310Y4482180D01*
X2831530Y4469490D01*
X2829920Y4456780D01*
X2823480Y4446200D01*
X2791320Y4425030D01*
X2776840Y4410220D01*
X2767190Y4389050D01*
X2763970Y4370000D01*
X2831530D01*
G01X3375000Y1620000D02*
Y1925000D01*
G01X4080000Y1190000D02*
Y2210000D01*
X3520000D01*
Y1190000D01*
X4080000D01*
G01X3520000Y1340000D02*
X3640000D01*
G01X3603630Y2366420D02*
X3593980Y2372770D01*
X3582730Y2377000D01*
X3569860D01*
X3555380Y2370650D01*
X3544130Y2360070D01*
X3536080Y2347370D01*
X3529650Y2326200D01*
X3528040Y2307150D01*
X3531260Y2288100D01*
X3536080Y2275400D01*
X3545730Y2262700D01*
X3556990Y2254230D01*
X3568250Y2250000D01*
X3579510D01*
X3590770Y2254230D01*
X3600420Y2260580D01*
X3608460Y2269050D01*
G01X3670410Y2264810D02*
X3681670Y2254230D01*
X3694530Y2250000D01*
X3707400Y2254230D01*
X3718660Y2266930D01*
X3726700Y2285980D01*
X3729920Y2305030D01*
Y2328320D01*
X3726700Y2347370D01*
X3718660Y2364300D01*
X3709010Y2372770D01*
X3697750Y2377000D01*
X3684880Y2372770D01*
X3675230Y2364300D01*
X3668800Y2351600D01*
X3665580Y2334660D01*
X3668800Y2319850D01*
X3676840Y2305030D01*
X3686490Y2296560D01*
X3697750Y2294450D01*
X3710620Y2298680D01*
X3720270Y2309270D01*
X3729920Y2328320D01*
G01X3520000Y3810000D02*
Y2790000D01*
X4080000D01*
Y3810000D01*
X3520000D01*
G01Y3660000D02*
X3640000D01*
G01X3603630Y3976420D02*
X3593980Y3982770D01*
X3582730Y3987000D01*
X3569860D01*
X3555380Y3980650D01*
X3544130Y3970070D01*
X3536080Y3957370D01*
X3529650Y3936200D01*
X3528040Y3917150D01*
X3531260Y3898100D01*
X3536080Y3885400D01*
X3545730Y3872700D01*
X3556990Y3864230D01*
X3568250Y3860000D01*
X3579510D01*
X3590770Y3864230D01*
X3600420Y3870580D01*
X3608460Y3879050D01*
G01X3697750Y3860000D02*
Y3987000D01*
X3678450Y3961600D01*
G01Y3860000D02*
X3717050D01*
G01X3827250Y3987000D02*
X3814380Y3982770D01*
X3804730Y3972180D01*
X3798300Y3959490D01*
X3793470Y3942550D01*
X3791870Y3923500D01*
X3793470Y3904450D01*
X3798300Y3887510D01*
X3804730Y3874810D01*
X3814380Y3864230D01*
X3827250Y3860000D01*
X3840120Y3864230D01*
X3849770Y3874810D01*
X3856200Y3887510D01*
X3861030Y3904450D01*
X3862630Y3923500D01*
X3861030Y3942550D01*
X3856200Y3959490D01*
X3849770Y3972180D01*
X3840120Y3982770D01*
X3827250Y3987000D01*
G01X4080000Y1340000D02*
X3960000D01*
G01X4080000Y3660000D02*
X3960000D01*
G01X4305750Y1020000D02*
X4292880Y1022120D01*
X4281630Y1030580D01*
X4271970Y1043280D01*
X4265540Y1058100D01*
X4262320Y1075030D01*
Y1091970D01*
X4265540Y1108900D01*
X4271970Y1123720D01*
X4281630Y1136420D01*
X4292880Y1144880D01*
X4305750Y1147000D01*
X4318620Y1144880D01*
X4329870Y1136420D01*
X4339530Y1123720D01*
X4345960Y1108900D01*
X4349180Y1091970D01*
Y1075030D01*
X4345960Y1058100D01*
X4339530Y1043280D01*
X4329870Y1030580D01*
X4318620Y1022120D01*
X4305750Y1020000D01*
G01X4399870Y1147000D02*
Y1055980D01*
X4406300Y1036930D01*
X4419170Y1024230D01*
X4435250Y1020000D01*
X4451330Y1024230D01*
X4464200Y1036930D01*
X4470630Y1055980D01*
Y1147000D01*
G01X4564750D02*
Y1020000D01*
G01X4527760Y1147000D02*
X4601740D01*
G01X4694250Y1020000D02*
Y1147000D01*
X4674950Y1121600D01*
G01Y1020000D02*
X4713550D01*
G01X4380150Y2313500D02*
X4412320D01*
Y2275400D01*
X4402670Y2262700D01*
X4391410Y2254230D01*
X4375330Y2250000D01*
X4359240Y2254230D01*
X4347980Y2262700D01*
X4338330Y2275400D01*
X4331900Y2290220D01*
X4328680Y2307150D01*
Y2321970D01*
X4331900Y2334660D01*
X4338330Y2349490D01*
X4347980Y2362180D01*
X4357630Y2370650D01*
X4370500Y2377000D01*
X4381760D01*
X4394620Y2372770D01*
X4404280Y2364300D01*
G01X4463010Y2250000D02*
Y2377000D01*
X4536990Y2250000D01*
Y2377000D01*
G01X4594120Y2250000D02*
Y2377000D01*
X4626280D01*
X4639150Y2370650D01*
X4648800Y2362180D01*
X4656840Y2349490D01*
X4663280Y2334660D01*
X4664880Y2313500D01*
X4663280Y2292330D01*
X4656840Y2277510D01*
X4648800Y2264810D01*
X4639150Y2256350D01*
X4626280Y2250000D01*
X4594120D01*
G01X4380150Y2683500D02*
X4412320D01*
Y2645400D01*
X4402670Y2632700D01*
X4391410Y2624230D01*
X4375330Y2620000D01*
X4359240Y2624230D01*
X4347980Y2632700D01*
X4338330Y2645400D01*
X4331900Y2660220D01*
X4328680Y2677150D01*
Y2691970D01*
X4331900Y2704660D01*
X4338330Y2719490D01*
X4347980Y2732180D01*
X4357630Y2740650D01*
X4370500Y2747000D01*
X4381760D01*
X4394620Y2742770D01*
X4404280Y2734300D01*
G01X4463010Y2620000D02*
Y2747000D01*
X4536990Y2620000D01*
Y2747000D01*
G01X4594120Y2620000D02*
Y2747000D01*
X4626280D01*
X4639150Y2740650D01*
X4648800Y2732180D01*
X4656840Y2719490D01*
X4663280Y2704660D01*
X4664880Y2683500D01*
X4663280Y2662330D01*
X4656840Y2647510D01*
X4648800Y2634810D01*
X4639150Y2626350D01*
X4626280Y2620000D01*
X4594120D01*
G01X4305750Y3860000D02*
X4292880Y3862120D01*
X4281630Y3870580D01*
X4271970Y3883280D01*
X4265540Y3898100D01*
X4262320Y3915030D01*
Y3931970D01*
X4265540Y3948900D01*
X4271970Y3963720D01*
X4281630Y3976420D01*
X4292880Y3984880D01*
X4305750Y3987000D01*
X4318620Y3984880D01*
X4329870Y3976420D01*
X4339530Y3963720D01*
X4345960Y3948900D01*
X4349180Y3931970D01*
Y3915030D01*
X4345960Y3898100D01*
X4339530Y3883280D01*
X4329870Y3870580D01*
X4318620Y3862120D01*
X4305750Y3860000D01*
G01X4399870Y3987000D02*
Y3895980D01*
X4406300Y3876930D01*
X4419170Y3864230D01*
X4435250Y3860000D01*
X4451330Y3864230D01*
X4464200Y3876930D01*
X4470630Y3895980D01*
Y3987000D01*
G01X4564750D02*
Y3860000D01*
G01X4527760Y3987000D02*
X4601740D01*
G01X4663690Y3965830D02*
X4673340Y3978530D01*
X4684600Y3984880D01*
X4697470Y3987000D01*
X4713550Y3982770D01*
X4724810Y3972180D01*
X4728030Y3959490D01*
X4726420Y3946780D01*
X4719980Y3936200D01*
X4687820Y3915030D01*
X4673340Y3900220D01*
X4663690Y3879050D01*
X4660470Y3860000D01*
X4728030D01*
G01X4736080Y1345400D02*
X4744130Y1332700D01*
X4753770Y1324230D01*
X4765030Y1320000D01*
X4777900Y1324230D01*
X4787550Y1332700D01*
X4797200Y1345400D01*
X4800420Y1362330D01*
Y1447000D01*
G01X4867190Y1372910D02*
X4878450Y1387730D01*
X4888100Y1396200D01*
X4900970Y1400430D01*
X4912230Y1396200D01*
X4920270Y1387730D01*
X4926700Y1375030D01*
X4928310Y1360220D01*
X4926700Y1347510D01*
X4920270Y1334810D01*
X4910620Y1324230D01*
X4899360Y1320000D01*
X4886490Y1324230D01*
X4875230Y1336930D01*
X4868800Y1355980D01*
X4867190Y1377150D01*
X4870410Y1404660D01*
X4875230Y1419490D01*
X4883270Y1434300D01*
X4894530Y1444880D01*
X4905790Y1447000D01*
X4917050Y1442770D01*
X4925090Y1432180D01*
G01X4736080Y1945400D02*
X4744130Y1932700D01*
X4753770Y1924230D01*
X4765030Y1920000D01*
X4777900Y1924230D01*
X4787550Y1932700D01*
X4797200Y1945400D01*
X4800420Y1962330D01*
Y2047000D01*
G01X4862370Y1939050D02*
X4872010Y1928460D01*
X4883270Y1922120D01*
X4897750Y1920000D01*
X4912230Y1924230D01*
X4923480Y1932700D01*
X4931530Y1947510D01*
X4933130Y1964450D01*
X4929920Y1981380D01*
X4921870Y1991970D01*
X4910620Y2000430D01*
X4899360Y2002550D01*
X4888100Y2000430D01*
X4873630Y1991970D01*
X4878450Y2047000D01*
X4921870D01*
G01X4736080Y2955400D02*
X4744130Y2942700D01*
X4753770Y2934230D01*
X4765030Y2930000D01*
X4777900Y2934230D01*
X4787550Y2942700D01*
X4797200Y2955400D01*
X4800420Y2972330D01*
Y3057000D01*
G01X4917050Y2930000D02*
Y3057000D01*
X4857540Y2965980D01*
X4937960D01*
G01X4736080Y3555400D02*
X4744130Y3542700D01*
X4753770Y3534230D01*
X4765030Y3530000D01*
X4777900Y3534230D01*
X4787550Y3542700D01*
X4797200Y3555400D01*
X4800420Y3572330D01*
Y3657000D01*
G01X4862370Y3555400D02*
X4872010Y3540580D01*
X4884880Y3532120D01*
X4899360Y3530000D01*
X4912230Y3532120D01*
X4925090Y3542700D01*
X4933130Y3555400D01*
X4934740Y3568100D01*
X4931530Y3582910D01*
X4920270Y3593500D01*
X4909010Y3597730D01*
X4894530D01*
G01X4909010D02*
X4918660Y3604080D01*
X4926700Y3614660D01*
X4929920Y3627370D01*
X4926700Y3640070D01*
X4918660Y3650650D01*
X4904180Y3657000D01*
X4889710Y3654880D01*
X4875230Y3646420D01*
G54D12*
G01X600000Y1690000D02*
X400000D01*
G01X600000Y3380000D02*
X400000D01*
G01X500000Y3280000D02*
Y3480000D01*
G54D13*
G01X1396800Y1246000D02*
X1803200D01*
G01Y1754000D02*
X1650800D01*
G02X1549200I-50800J0D01*
G01X1396800D01*
G01Y3646000D02*
X1803200D01*
G01Y4154000D02*
X1650800D01*
G02X1549200I-50800J0D01*
G01X1396800D01*
G54D14*
G01X1568240Y1080000D02*
X1555380Y1082120D01*
X1544120Y1090580D01*
X1534470Y1103280D01*
X1528040Y1118100D01*
X1524820Y1135030D01*
Y1151970D01*
X1528040Y1168900D01*
X1534470Y1183720D01*
X1544120Y1196420D01*
X1555380Y1204880D01*
X1568240Y1207000D01*
X1581110Y1204880D01*
X1592370Y1196420D01*
X1602020Y1183720D01*
X1608450Y1168900D01*
X1611670Y1151970D01*
Y1135030D01*
X1608450Y1118100D01*
X1602020Y1103280D01*
X1592370Y1090580D01*
X1581110Y1082120D01*
X1568240Y1080000D01*
G01X1581110Y1113870D02*
X1600410Y1080000D01*
G01X1697720D02*
Y1207000D01*
X1678430Y1181600D01*
G01Y1080000D02*
X1717020D01*
G01X1568240Y3460000D02*
X1555380Y3462120D01*
X1544120Y3470580D01*
X1534470Y3483280D01*
X1528040Y3498100D01*
X1524820Y3515030D01*
Y3531970D01*
X1528040Y3548900D01*
X1534470Y3563720D01*
X1544120Y3576420D01*
X1555380Y3584880D01*
X1568240Y3587000D01*
X1581110Y3584880D01*
X1592370Y3576420D01*
X1602020Y3563720D01*
X1608450Y3548900D01*
X1611670Y3531970D01*
Y3515030D01*
X1608450Y3498100D01*
X1602020Y3483280D01*
X1592370Y3470580D01*
X1581110Y3462120D01*
X1568240Y3460000D01*
G01X1581110Y3493870D02*
X1600410Y3460000D01*
G01X1667170Y3565830D02*
X1676820Y3578530D01*
X1688080Y3584880D01*
X1700940Y3587000D01*
X1717020Y3582770D01*
X1728280Y3572180D01*
X1731500Y3559490D01*
X1729890Y3546780D01*
X1723450Y3536200D01*
X1691290Y3515030D01*
X1676820Y3500220D01*
X1667170Y3479050D01*
X1663950Y3460000D01*
X1731500D01*
M02*
