G04 ================== begin FILE IDENTIFICATION RECORD ==================*
G04 Layout Name:  ISL6236A PCB V1I1.brd*
G04 Film Name:    ISL6236A_V1I1_09-L6*
G04 File Format:  Gerber RS274X*
G04 File Origin:  Cadence Allegro 17.2-S025*
G04 Origin Date:  Wed Feb 21 15:58:05 2018*
G04 *
G04 Layer:  VIA CLASS/BOTTOM*
G04 Layer:  PIN/BOTTOM*
G04 Layer:  ETCH/BOTTOM*
G04 *
G04 Offset:    (0.0000 0.0000)*
G04 Mirror:    No*
G04 Mode:      Positive*
G04 Rotation:  0*
G04 FullContactRelief:  No*
G04 UndefLineWidth:     0.0000*
G04 ================== end FILE IDENTIFICATION RECORD ====================*
%FSLAX25Y25*MOMM*%
%IR0*IPPOS*OFA0.00000B0.00000*MIA0B0*SFA1.00000B1.00000*%
%ADD16R,1.3X.7*%
%ADD14R,.7X1.3*%
%ADD13C,.6*%
%ADD20R,.95X1.7*%
%ADD15R,.95X1.35*%
%ADD17R,3.3X3.3*%
%ADD19R,.23X.6*%
%ADD18R,.6X.23*%
%ADD12C,4.*%
%ADD11C,1.016*%
%ADD10C,7.4*%
%ADD21C,.2*%
%ADD22C,.21*%
%ADD23C,.5*%
%ADD24C,.7*%
G75*
%LPD*%
G75*
G36*
G01X1730000Y2550000D02*
X1860000D01*
Y2330000D01*
X1730000D01*
Y2550000D01*
G37*
G36*
G01X3330000Y2357500D02*
X3150000D01*
Y2497500D01*
X3330000D01*
Y2357500D01*
G37*
G36*
G01X3150000Y2590000D02*
Y2729980D01*
X3330000D01*
Y2590000D01*
X3150000D01*
G37*
G36*
G01Y2890020D02*
Y3030000D01*
X3330000D01*
Y2892450D01*
X3327570Y2890020D01*
X3150000D01*
G37*
G36*
G01X3135000Y3430000D02*
X3265000D01*
Y3210000D01*
X3135000D01*
Y3430000D01*
G37*
G36*
G01X3440000Y2260000D02*
Y2080000D01*
X3260000D01*
Y2260000D01*
X3440000D01*
G37*
G54D10*
X400000Y400000D03*
Y4600000D03*
X4600000Y400000D03*
Y4600000D03*
G54D11*
X200000Y900000D03*
Y4100000D03*
X1770000Y3250000D03*
Y3480000D03*
X2260000Y2110000D03*
X4100000Y4200000D03*
X4800000Y900000D03*
G54D20*
X3005000Y2170000D03*
X3315000D03*
G54D21*
G01X1770000Y3250000D02*
X1525000D01*
G01Y3480000D02*
X1770000D01*
G01X1815000Y2240000D02*
Y2127500D01*
X1795000Y2107500D01*
Y2010000D01*
G01X1815000Y2740000D02*
Y2852500D01*
X1795000Y2872500D01*
Y2970000D01*
G01X2300000Y3110000D02*
X2160000Y3250000D01*
X1770000D01*
G01Y3480000D02*
X2210000D01*
X2390000Y3300000D01*
Y2894730D01*
X2475000Y2809730D01*
Y2740000D01*
G01X2325000Y2260000D02*
X2250000D01*
G01X2260000Y2325000D02*
X2185000D01*
X2100000Y2240000D01*
X2005000D01*
G01X2260000Y2675000D02*
X2215000D01*
X2150000Y2740000D01*
X2005000D01*
G01X2325000D02*
X2260000D01*
X2200000Y2800000D01*
G01X2260000Y2375000D02*
X2145000D01*
X2100000Y2330000D01*
G01X2260000Y2625000D02*
X2175000D01*
X2140000Y2660000D01*
G01X2260000Y2110000D02*
Y1955000D01*
G01X2375000Y2260000D02*
Y2205000D01*
X2350000Y2180000D01*
G01X2425000Y2260000D02*
Y2165000D01*
X2370000Y2110000D01*
X2260000D01*
G01X2375000Y2740000D02*
Y2784990D01*
X2319990Y2840000D01*
X2280000D01*
G01X2300000Y3110000D02*
Y2928160D01*
X2425000Y2803160D01*
Y2740000D01*
G01X2525000Y2260000D02*
Y2075000D01*
X2500000Y2050000D01*
Y1955000D01*
G01X2475000Y2260000D02*
Y2115000D01*
X2450000Y2090000D01*
G01X2575000Y2260000D02*
Y2200000D01*
X2637500Y2137500D01*
G01X2675000Y2740000D02*
Y2845000D01*
X2700000Y2870000D01*
G01X2625000Y2740000D02*
Y2895000D01*
X2620000Y2900000D01*
Y2965000D01*
G01X2740000Y2525000D02*
X2817210D01*
X2930000Y2637790D01*
Y2782210D01*
X3007790Y2860000D01*
X3340000D01*
X3390000Y2910000D01*
Y3500000D01*
X3310000Y3580000D01*
X3180000D01*
G54D12*
X500000Y2000000D03*
Y3000000D03*
X4500000Y1400000D03*
Y2000000D03*
Y3000000D03*
Y3600000D03*
G54D22*
G01X2260000Y2425000D02*
X2105000D01*
G01X2260000Y2475000D02*
X2175000D01*
X2070000Y2580000D01*
G01X2260000Y2525000D02*
X2475000D01*
X2500000Y2500000D01*
G01X2260000Y2575000D02*
X2345000D01*
X2380000Y2610000D01*
Y2620000D01*
G01X2480000Y2960000D02*
Y2862010D01*
X2525000Y2817010D01*
Y2740000D01*
G01X2625000Y2260000D02*
Y2225360D01*
X2660360Y2190000D01*
X2715000D01*
G01X2575000Y2740000D02*
Y2825000D01*
X2560000Y2840000D01*
Y2880000D01*
G01X2740000Y2375000D02*
X2775000D01*
X2830000Y2320000D01*
Y2310000D01*
G01X2740000Y2325000D02*
Y2263500D01*
G01Y2475000D02*
X2845000D01*
X2855010Y2485010D01*
G01X2740000Y2425000D02*
X2805000D01*
X2824640Y2405360D01*
G01X2740000Y2675000D02*
Y2724430D01*
X2729500Y2734930D01*
Y2785070D01*
X2797220Y2852790D01*
G01X2740000Y2625000D02*
X2774640D01*
X2800500Y2650860D01*
Y2749500D01*
X2790000Y2760000D01*
G01X2740000Y2575000D02*
X2800500D01*
X2870000Y2644500D01*
Y2700000D01*
G54D13*
X850000Y1700000D03*
Y1900000D03*
Y2100000D03*
Y3300000D03*
Y3500000D03*
Y3700000D03*
X950000Y1600000D03*
Y1800000D03*
Y2000000D03*
Y3400000D03*
Y3600000D03*
Y3800000D03*
X1189320Y1309500D03*
Y1436500D03*
X1050000Y1500000D03*
X1189320Y1563500D03*
X1050000Y1700000D03*
X1150000Y1800000D03*
X1050000Y1900000D03*
X1150000Y2000000D03*
X1050000Y2100000D03*
Y3300000D03*
X1150000Y3400000D03*
X1050000Y3500000D03*
X1150000Y3600000D03*
X1050000Y3700000D03*
X1189320Y3836500D03*
X1050000Y3900000D03*
X1189320Y3963500D03*
Y4090500D03*
X1250000Y2470000D03*
X1220000Y2800000D03*
X1250000Y2930000D03*
Y3250000D03*
Y3480000D03*
X1446800Y1690500D03*
X1470000Y2000000D03*
Y1910000D03*
Y2090000D03*
X1446800Y3709500D03*
X1830000Y2360000D03*
X1760000D03*
X2010000Y1440000D03*
X1985000Y1865000D03*
Y3125000D03*
X2010000Y3830000D03*
X1970000Y4400000D03*
Y4310000D03*
Y4490000D03*
X2100000Y2330000D03*
X2140000Y2660000D03*
X2070000Y2580000D03*
X2260000Y1680000D03*
X2350000Y2180000D03*
X2380000Y2380000D03*
Y2620000D03*
X2280000Y2840000D03*
X2300000Y3110000D03*
X2500000Y1680000D03*
X2450000Y2090000D03*
X2480000Y2960000D03*
X2505000Y3155000D03*
X2620000Y2380000D03*
Y2620000D03*
X2560000Y2880000D03*
X2740000Y1680000D03*
Y2263500D03*
X2790000Y2760000D03*
X2775000Y3695000D03*
X2860000Y4040000D03*
X3005000Y2305000D03*
X3010000Y3110000D03*
X2905000Y3580000D03*
X3095000Y1955000D03*
X3100000Y2540000D03*
X3235000Y3240000D03*
X3165000D03*
X3335000Y1955000D03*
X3410000Y2210000D03*
Y2130000D03*
X3290000Y2467500D03*
Y2387500D03*
Y2700000D03*
Y2620000D03*
Y3000000D03*
Y2920000D03*
X3630000Y1840000D03*
Y2080000D03*
X3720000Y2200000D03*
Y2800000D03*
X3630000Y2920000D03*
Y3160000D03*
X3810000Y1190000D03*
X3880000Y2200000D03*
Y2800000D03*
X3800000Y3810000D03*
X3970000Y1840000D03*
Y2080000D03*
Y2920000D03*
Y3160000D03*
G54D23*
G01X1335000Y2470000D02*
X1250000D01*
G01X1335000Y2700000D02*
X1270000D01*
X1220000Y2750000D01*
Y2800000D01*
G01X1335000Y2930000D02*
X1250000D01*
G01X1335000Y3250000D02*
X1250000D01*
G01X1335000Y3480000D02*
X1250000D01*
G01X1985000Y2010000D02*
Y1865000D01*
G01X2250000Y2260000D02*
X2234510D01*
X2124200Y2149690D01*
Y2054200D01*
X2080000Y2010000D01*
X1985000D01*
G01X2105000Y2425000D02*
X2060000Y2470000D01*
X1985000D01*
G01Y2970000D02*
Y3125000D01*
G01X2200000Y2800000D02*
Y2890000D01*
X2120000Y2970000D01*
X1985000D01*
G01X2260000Y1765000D02*
Y1680000D01*
G01X2500000Y1765000D02*
Y1680000D01*
G01X2620000Y3155000D02*
X2505000D01*
G01X2637500Y2137500D02*
X2740000Y2035000D01*
Y1955000D01*
G01X2715000Y2190000D02*
X2950000Y1955000D01*
X2980000D01*
G01X2700000Y2870000D02*
X2760000Y2930000D01*
Y3178640D01*
X2703640Y3235000D01*
X2640000D01*
X2585000Y3290000D01*
Y3350000D01*
G01D02*
Y3580000D01*
G01D02*
Y3810000D01*
G01D02*
Y4040000D01*
G01X2740000Y1765000D02*
Y1680000D01*
G01X2980000Y1765000D02*
X2915360D01*
X2870000Y1810360D01*
Y1901360D01*
X2816360Y1955000D01*
X2740000D01*
G01X2830000Y2310000D02*
Y2220000D01*
X2880000Y2170000D01*
X3005000D01*
G01X2855010Y2485010D02*
X3010000Y2640000D01*
Y2660000D01*
G01X2824640Y2405360D02*
X2895360D01*
X2917500Y2427500D01*
X3010000D01*
G01X2797220Y2852790D02*
X2890000Y2945570D01*
Y3120000D01*
X3010000Y3240000D01*
Y3350000D01*
G01X2870000Y2700000D02*
Y2800000D01*
X3010000Y2940000D01*
Y2960000D01*
G01X2775000Y3350000D02*
X3010000D01*
G01X2775000Y3580000D02*
Y3695000D01*
G01Y4040000D02*
X2860000D01*
G01X2980000Y1765000D02*
X3220000D01*
G01X2980000Y1955000D02*
X3095000D01*
G01X3005000Y2170000D02*
Y2305000D01*
G01X3010000Y2427500D02*
Y2517500D01*
X3032500Y2540000D01*
X3100000D01*
G01X3010000Y2960000D02*
Y3110000D01*
G01X2990000Y3580000D02*
X2905000D01*
G01X3220000Y1955000D02*
X3335000D01*
G54D14*
X1335000Y2470000D03*
Y2700000D03*
Y2930000D03*
Y3250000D03*
Y3480000D03*
X1525000Y2470000D03*
Y2700000D03*
Y2930000D03*
Y3250000D03*
Y3480000D03*
X1815000Y2240000D03*
Y2740000D03*
X2005000Y2240000D03*
Y2740000D03*
X2585000Y3350000D03*
Y3580000D03*
Y3810000D03*
Y4040000D03*
X2775000Y3350000D03*
Y3580000D03*
Y3810000D03*
Y4040000D03*
X2990000Y3580000D03*
X3180000D03*
G54D24*
G01X1525000Y2470000D02*
Y2700000D01*
G01D02*
Y2930000D01*
G01Y2700000D02*
X1660000D01*
X1750000Y2610000D01*
X1940000D01*
X1985000Y2565000D01*
Y2470000D01*
G01X3010000Y2660000D02*
Y2750000D01*
X3045000Y2785000D01*
X3419990D01*
X3490000Y2855010D01*
Y3560000D01*
X3240000Y3810000D01*
X2775000D01*
G54D15*
X1795000Y2010000D03*
Y2470000D03*
Y2970000D03*
X1985000Y2010000D03*
Y2470000D03*
Y2970000D03*
X3010000Y2427500D03*
Y2660000D03*
Y2960000D03*
Y3350000D03*
X3200000Y2427500D03*
Y2660000D03*
Y2960000D03*
Y3350000D03*
G54D16*
X2260000Y1765000D03*
Y1955000D03*
X2500000Y1765000D03*
Y1955000D03*
X2740000Y1765000D03*
Y1955000D03*
X2620000Y2965000D03*
Y3155000D03*
X2980000Y1765000D03*
Y1955000D03*
X3220000Y1765000D03*
Y1955000D03*
G54D17*
X2500000Y2500000D03*
G54D18*
X2260000Y2325000D03*
Y2525000D03*
Y2475000D03*
Y2425000D03*
Y2375000D03*
Y2675000D03*
Y2625000D03*
Y2575000D03*
X2740000Y2325000D03*
Y2375000D03*
Y2425000D03*
Y2475000D03*
Y2525000D03*
Y2575000D03*
Y2625000D03*
Y2675000D03*
G54D19*
X2325000Y2260000D03*
Y2740000D03*
X2375000Y2260000D03*
X2425000D03*
X2475000D03*
X2525000D03*
Y2740000D03*
X2475000D03*
X2425000D03*
X2375000D03*
X2575000Y2260000D03*
X2625000D03*
X2675000D03*
Y2740000D03*
X2625000D03*
X2575000D03*
M02*
