G04 ================== begin FILE IDENTIFICATION RECORD ==================*
G04 Layout Name:  ISL6236A PCB V1I1.brd*
G04 Film Name:    ISL6236A_V1I1_04-L1*
G04 File Format:  Gerber RS274X*
G04 File Origin:  Cadence Allegro 17.2-S025*
G04 Origin Date:  Wed Feb 21 15:58:05 2018*
G04 *
G04 Layer:  VIA CLASS/TOP*
G04 Layer:  PIN/TOP*
G04 Layer:  ETCH/TOP*
G04 *
G04 Offset:    (0.0000 0.0000)*
G04 Mirror:    No*
G04 Mode:      Positive*
G04 Rotation:  0*
G04 FullContactRelief:  No*
G04 UndefLineWidth:     0.0000*
G04 ================== end FILE IDENTIFICATION RECORD ====================*
%FSLAX25Y25*MOMM*%
%IR0*IPPOS*OFA0.00000B0.00000*MIA0B0*SFA1.00000B1.00000*%
%ADD13C,.6*%
%ADD15R,.95X2.6*%
%ADD14R,1.5748X.5588*%
%ADD12C,4.*%
%ADD11C,1.016*%
%ADD10C,7.4*%
%ADD17R,2.55X3.75*%
%ADD16R,3.85X5.5*%
%ADD18C,.3*%
%ADD19C,.5*%
%ADD20C,1.0004*%
G75*
%LPD*%
G75*
G36*
G01X1780000Y1650000D02*
Y2190000D01*
X780000D01*
X240000Y2730000D01*
Y3760000D01*
X1030000Y4550000D01*
X1650000D01*
Y4240000D01*
X1680000Y4210000D01*
X1980000D01*
Y4050000D01*
X1530000D01*
X1430000Y4150000D01*
X1170000D01*
X760000Y3740000D01*
Y3190000D01*
X2450190D01*
G02X2459440Y3175650I-5J-10159D01*
G03X2550560I45560J-20650D01*
G02X2559810Y3190000I9255J4191D01*
G01X3163650D01*
G03X3166350I1350J50000D01*
G01X3220000D01*
Y2380000D01*
X2760000D01*
Y2703180D01*
G02X2773510Y2712780I10161J7D01*
G03X2740190Y2764610I16487J47224D01*
G01X2739770Y2760000D01*
X770000D01*
Y2700000D01*
X890000Y2580000D01*
X2019770D01*
X2020190Y2575390D01*
G03X2119810I49810J4610D01*
G01X2120230Y2580000D01*
X2200000D01*
Y1650000D01*
X1780000D01*
G37*
G36*
G01X1400000Y1600000D02*
Y1400000D01*
X1090000D01*
X810000Y1680000D01*
Y2160000D01*
X1190000D01*
Y1600000D01*
X1400000D01*
G37*
G36*
G01Y3800000D02*
X1190000D01*
Y3240000D01*
X810000D01*
Y3720000D01*
X1090000Y4000000D01*
X1400000D01*
Y3800000D01*
G37*
G36*
G01X1210740Y659040D02*
G02X1217080Y659110I6880J-335991D01*
G02X1223350Y659060I502J-330203D01*
G02X1228920Y658880I-3890J-206639D01*
G02X1234450Y658590I-14329J-326110D01*
G02X1240360Y658180I-26519J-425064D01*
G02X1246110Y657730I-128004J-1672562D01*
G02X1246800Y657530I-117J-1692D01*
G02X1246900Y657270I-104J-189D01*
G01X1243420Y647460D01*
G02X1239020Y635150I-1955964J692185D01*
G02X1232520Y617210I-8498175J3068901D01*
G01X1226890Y601740D01*
X1222070Y588510D01*
X1217820Y576830D01*
G02X1217470Y575890I-91151J33404D01*
G01X1217030Y574700D01*
X1213350D01*
G03X1207670Y574550I-116J-103232D01*
G03X1200760Y574060I12559J-226077D01*
G03X1193630Y573340I20279J-236480D01*
G03X1187250Y572460I18081J-154657D01*
G03X1162260Y566820I31007J-195570D01*
G03X1138350Y558030I54725J-185774D01*
G03X1115800Y546170I78730J-177061D01*
G03X1094840Y531380I103906J-169500D01*
G03X1086640Y524330I107849J-133736D01*
G03X1078370Y516330I148823J-162120D01*
G03X1070550Y507950I155833J-153258D01*
G03X1063730Y499710I123938J-109522D01*
G03X1051990Y482900I162401J-125924D01*
G03X1042160Y465230I164800J-103249D01*
G03X1034280Y446750I172311J-84395D01*
G03X1028360Y427530I180778J-66204D01*
G03X1027940Y425800I202907J-50177D01*
G03X1027570Y424270I122762J-30497D01*
G03X1027280Y422970I213277J-48260D01*
G03X1027250Y422660I1393J-291D01*
G03X1027530Y422380I281J1D01*
G01X1038200Y422290D01*
G03X1054890Y422210I22110J2871623D01*
G01X1094360Y422160D01*
X1161480Y422090D01*
X1146400Y380650D01*
X1140600Y364710D01*
X1135660Y351170D01*
X1131240Y339070D01*
G02X1131000Y338490I-7636J2820D01*
G01X1130670Y337770D01*
X1076590D01*
X1042720Y337760D01*
G03X1030300Y337700I937J-1479467D01*
G03X1022830Y337620I16547J-1893841D01*
G03X1022470Y337280I7J-368D01*
G03X1022330Y333830I42117J-3437D01*
G01X1022500Y218230D01*
X1022670Y101090D01*
G03X1022820Y100880I227J3D01*
G02X1022910Y100830I-106J-296D01*
G02X1022990Y100740I-297J-345D01*
G02X1023050Y100640I-341J-273D01*
G02X1023070Y100530I-300J-111D01*
G02X1022950Y100420I-115J5D01*
G01X1011400Y100350D01*
G02X997950Y100300I-18968J3293253D01*
G02X980560Y100280I-19112J9057929D01*
G01X938050D01*
Y337210D01*
X860000D01*
Y422230D01*
X941310D01*
X941790Y425230D01*
G02X942060Y426820I76687J-12204D01*
G02X942530Y429350I454649J-83152D01*
G02X943080Y432220I509372J-96127D01*
G02X943630Y435050I485744J-92934D01*
G02X950200Y461170I265901J-52996D01*
G02X959360Y486690I266414J-81221D01*
G02X970980Y511250I258338J-107198D01*
G02X984910Y534500I244146J-130480D01*
G02X1027400Y584430I234468J-156486D01*
G02X1080170Y623050I190122J-204419D01*
G02X1140430Y648310I137104J-242567D01*
G02X1204950Y658850I76973J-268439D01*
G02X1210740Y659040I10599J-234672D01*
G37*
G36*
G01X1394770Y299560D02*
X1440000Y299570D01*
G02X1458220Y299560I3705J-9848390D01*
G02X1472610Y299510I-6318J-3889107D01*
G01X1485110Y299440D01*
G02X1485220Y299330I0J-110D01*
G02X1485130Y298710I-2052J-19D01*
G02X1483900Y294850I-1010485J319868D01*
G02X1482580Y290840I-320205J103182D01*
G02X1481280Y287040I-260149J86876D01*
G02X1474620Y269940I-252598J88533D01*
G02X1466690Y253030I-264253J113608D01*
G02X1457680Y236670I-256192J130432D01*
G02X1447780Y221250I-228930J136090D01*
G02X1407700Y174930I-232747J160892D01*
G02X1358700Y138460I-190561J204879D01*
G02X1303060Y113570I-140871J240273D01*
G02X1243410Y101420I-84821J263925D01*
G02X1235910Y100820I-28287J306407D01*
G02X1228990Y100470I-14656J221184D01*
G02X1221800Y100320I-8626J241100D01*
G02X1213480Y100360I-2084J431801D01*
G02X1205730Y100530I5885J445006D01*
G02X1199100Y100830I7543J240104D01*
G02X1192810Y101290I12431J213211D01*
G02X1186130Y101970I24468J273514D01*
G02X1165110Y105150I31813J281346D01*
G02X1144450Y109900I52320J274868D01*
G02X1124250Y116180I72577J269075D01*
G02X1104600Y123980I92651J262060D01*
G02X1099990Y126100I67861J153639D01*
G02X1093850Y129080I231784J485385D01*
G02X1087780Y132120I238207J483211D01*
G02X1083460Y134410I67848J133213D01*
G02X1077360Y137900I114635J207442D01*
G02X1070160Y142230I243989J413861D01*
G02X1063320Y146480I425286J692090D01*
G02X1061320Y148020I7193J11410D01*
G01X1060700Y148600D01*
X1060720Y264600D01*
X1061480Y263640D01*
G02X1061900Y263100I-173609J-135462D01*
G01X1062630Y262150D01*
X1063480Y261060D01*
X1064350Y259940D01*
G03X1071340Y251510I129757J100479D01*
G03X1079330Y243000I158451J140763D01*
G03X1087850Y234870I152951J151758D01*
G03X1096440Y227570I121220J133937D01*
G03X1118990Y212060I121816J152961D01*
G03X1143450Y199880I98638J167436D01*
G03X1169310Y191280I73774J178657D01*
G03X1196030Y186430I47311J184620D01*
G03X1223730Y185350I21667J199963D01*
G03X1251030Y188120I-5772J192796D01*
G03X1277580Y194720I-32864J188905D01*
G03X1303060Y205060I-60725J186203D01*
G03X1316910Y212530I-88605J180855D01*
G03X1329810Y220900I-93673J158496D01*
G03X1342010Y230340I-107249J151209D01*
G03X1353750Y241040I-134255J159095D01*
G03X1365250Y253320I-142979J145422D01*
G03X1375530Y266340I-146299J126079D01*
G03X1384550Y280040I-153012J110561D01*
G03X1392260Y294360I-156538J93517D01*
G01X1394770Y299560D01*
G37*
G36*
G01X1281240Y639000D02*
X1285550Y650760D01*
G02X1285600Y650800I54J-16D01*
G02X1285990Y650750I3J-1521D01*
G02X1288880Y649980I-322950J-1217920D01*
G02X1291980Y649130I-95079J-352837D01*
G02X1295120Y648250I-103911J-376816D01*
G02X1322170Y638920I-73384J-256637D01*
G02X1348480Y626620I-106695J-262513D01*
G02X1373440Y611670I-133441J-251099D01*
G02X1396440Y594400I-151389J-225569D01*
G02X1406420Y585590I-160417J-191779D01*
G02X1416650Y575640I-225843J-242433D01*
G02X1426420Y565280I-235007J-231410D01*
G02X1434970Y555280I-178733J-161472D01*
G02X1458480Y521330I-216941J-175345D01*
G02X1476760Y484250I-241530J-142117D01*
G02X1489350Y444940I-258978J-104615D01*
G02X1495940Y404390I-266637J-64143D01*
G02X1496830Y389000I-270633J-23371D01*
G02X1496890Y373110I-307168J-9105D01*
G02X1496130Y357350I-302919J6709D01*
G02X1494560Y342400I-249424J18636D01*
G02X1494300Y340480I-289623J38242D01*
G02X1494050Y338850I-152725J22590D01*
G02X1493830Y337410I-764054J115994D01*
G02X1493780Y337320I-163J31D01*
G02X1493680Y337270I-110J96D01*
G01X1446380Y337260D01*
X1394340D01*
X1332550Y337280D01*
X1171430Y337350D01*
X1186440Y378610D01*
X1192220Y394510D01*
X1197170Y408090D01*
X1201550Y420100D01*
G02X1201900Y421040I70669J-25778D01*
G01X1202340Y422230D01*
X1304760D01*
X1358010Y422240D01*
G03X1386620Y422300I-6530J9934764D01*
G01X1406970Y422370D01*
G03X1407170Y422580I-5J205D01*
G03X1407140Y422840I-1148J-1D01*
G03X1406770Y424380I-490382J-117005D01*
G03X1406330Y426170I-202905J-48927D01*
G03X1405800Y428220I-354048J-90441D01*
G03X1387860Y473430I-188828J-48765D01*
G03X1359300Y512720I-170016J-93560D01*
G03X1321870Y543710I-141621J-132952D01*
G03X1277840Y564520I-105061J-165304D01*
G03X1273100Y565970I-38052J-115918D01*
G03X1266210Y567870I-138340J-488221D01*
G03X1259070Y569760I-336766J-1257796D01*
G03X1257530Y569970I-1615J-6094D01*
G02X1256890Y570790I10J668D01*
G02X1257950Y574620I41741J-9491D01*
G02X1260650Y582450I258865J-84883D01*
G01X1270890Y610640D01*
X1281240Y639000D01*
G37*
G36*
G01X1430000Y1870000D02*
Y2130000D01*
X1620000D01*
Y1870000D01*
X1430000D01*
G37*
G36*
G01X1790000Y1250000D02*
Y1600000D01*
X2460000D01*
Y1010000D01*
X2030000D01*
X1790000Y1250000D01*
G37*
G36*
G01Y3650000D02*
Y4000000D01*
X2460000D01*
Y3410000D01*
X2030000D01*
X1790000Y3650000D01*
G37*
G36*
G01X2010000Y4270000D02*
X1820000D01*
Y4530000D01*
X2010000D01*
Y4270000D01*
G37*
G36*
G01X3040000Y1010000D02*
Y1630000D01*
X4720000D01*
Y1140000D01*
X3590000D01*
X3460000Y1010000D01*
X3040000D01*
G37*
G36*
G01Y3990000D02*
X3460000D01*
X3590000Y3860000D01*
X4720000D01*
Y3370000D01*
X3040000D01*
Y3990000D01*
G37*
G36*
G01X3590000Y1780000D02*
Y2240000D01*
X4010000D01*
Y1780000D01*
X3590000D01*
G37*
G36*
G01X4010000Y3220000D02*
Y2760000D01*
X3590000D01*
Y3220000D01*
X4010000D01*
G37*
%LPC*%
G75*
G36*
G01X1795000Y2395740D02*
G02Y2324260I35000J-35740D01*
G02Y2395740I-35000J35740D01*
G37*
G54D20*
X1250000Y2470000D03*
Y2930000D03*
X1985000Y1865000D03*
Y3125000D03*
X2100000Y2330000D03*
X2280000Y2840000D03*
X2300000Y3110000D03*
X2480000Y2960000D03*
X2560000Y2880000D03*
X3010000Y3110000D03*
%LPD*%
G75*
G54D10*
X400000Y400000D03*
Y4600000D03*
X4600000Y400000D03*
Y4600000D03*
G54D11*
X200000Y900000D03*
Y4100000D03*
X4100000Y4200000D03*
X4800000Y900000D03*
G54D12*
X500000Y2000000D03*
Y3000000D03*
X4500000Y1400000D03*
Y2000000D03*
Y3000000D03*
Y3600000D03*
G54D13*
X850000Y1700000D03*
Y1900000D03*
Y2100000D03*
Y3300000D03*
Y3500000D03*
Y3700000D03*
X950000Y1600000D03*
Y1800000D03*
Y2000000D03*
Y3400000D03*
Y3600000D03*
Y3800000D03*
X1189320Y1309500D03*
Y1436500D03*
X1050000Y1500000D03*
X1189320Y1563500D03*
X1050000Y1700000D03*
X1150000Y1800000D03*
X1050000Y1900000D03*
X1150000Y2000000D03*
X1050000Y2100000D03*
Y3300000D03*
X1150000Y3400000D03*
X1050000Y3500000D03*
X1150000Y3600000D03*
X1050000Y3700000D03*
X1189320Y3836500D03*
X1050000Y3900000D03*
X1189320Y3963500D03*
Y4090500D03*
X1250000Y2470000D03*
X1220000Y2800000D03*
X1250000Y2930000D03*
Y3250000D03*
Y3480000D03*
X1446800Y1690500D03*
X1470000Y2000000D03*
Y1910000D03*
Y2090000D03*
X1446800Y3709500D03*
X1830000Y2360000D03*
X1760000D03*
X2010000Y1440000D03*
X1985000Y1865000D03*
Y3125000D03*
X2010000Y3830000D03*
X1970000Y4400000D03*
Y4310000D03*
Y4490000D03*
X2100000Y2330000D03*
X2140000Y2660000D03*
X2070000Y2580000D03*
X2260000Y1680000D03*
X2350000Y2180000D03*
X2380000Y2380000D03*
Y2620000D03*
X2280000Y2840000D03*
X2300000Y3110000D03*
X2500000Y1680000D03*
X2450000Y2090000D03*
X2480000Y2960000D03*
X2505000Y3155000D03*
X2620000Y2380000D03*
Y2620000D03*
X2560000Y2880000D03*
X2740000Y1680000D03*
Y2263500D03*
X2790000Y2760000D03*
X2775000Y3695000D03*
X2860000Y4040000D03*
X3005000Y2305000D03*
X3010000Y3110000D03*
X2905000Y3580000D03*
X3095000Y1955000D03*
X3100000Y2540000D03*
X3235000Y3240000D03*
X3165000D03*
X3335000Y1955000D03*
X3410000Y2210000D03*
Y2130000D03*
X3290000Y2467500D03*
Y2387500D03*
Y2700000D03*
Y2620000D03*
Y3000000D03*
Y2920000D03*
X3630000Y1840000D03*
Y2080000D03*
X3720000Y2200000D03*
Y2800000D03*
X3630000Y2920000D03*
Y3160000D03*
X3810000Y1190000D03*
X3880000Y2200000D03*
Y2800000D03*
X3800000Y3810000D03*
X3970000Y1840000D03*
Y2080000D03*
Y2920000D03*
Y3160000D03*
G54D14*
X1318060Y1309500D03*
Y1436500D03*
Y1563500D03*
Y1690500D03*
Y3709500D03*
Y3836500D03*
Y3963500D03*
Y4090500D03*
X1881940Y1309500D03*
Y1436500D03*
Y1690500D03*
Y1563500D03*
Y3709500D03*
Y3836500D03*
Y4090500D03*
Y3963500D03*
G54D15*
X1565000Y2000000D03*
Y4400000D03*
X1875000Y2000000D03*
Y4400000D03*
G54D16*
X2252500Y1300000D03*
Y3700000D03*
X3247500Y1300000D03*
Y3700000D03*
G54D17*
X3800000Y1430000D03*
Y1970000D03*
Y3030000D03*
Y3570000D03*
G54D18*
G01X1635670Y270000D02*
Y450000D01*
X1724330D01*
G01X1691670Y363000D02*
X1635670D01*
G01X1896670Y270000D02*
X1803330D01*
Y450000D01*
X1896670D01*
G01X1859330Y363000D02*
X1803330D01*
G01X1968670Y270000D02*
Y450000D01*
X2015330D01*
X2034000Y441000D01*
X2048000Y429000D01*
X2059670Y411000D01*
X2069000Y390000D01*
X2071330Y360000D01*
X2069000Y330000D01*
X2059670Y309000D01*
X2048000Y291000D01*
X2034000Y279000D01*
X2015330Y270000D01*
X1968670D01*
G01X2236670D02*
X2143330D01*
Y450000D01*
X2236670D01*
G01X2199330Y363000D02*
X2143330D01*
G01X2301660Y450000D02*
X2360000Y270000D01*
X2418340Y450000D01*
G01X2576670Y270000D02*
X2483330D01*
Y450000D01*
X2576670D01*
G01X2539330Y363000D02*
X2483330D01*
G01X2653330Y450000D02*
Y270000D01*
X2746670D01*
G01X2981660D02*
X3040000Y450000D01*
X3098340Y270000D01*
G01X3077330Y333000D02*
X3002660D01*
G01X3247330Y375000D02*
X3231000Y387000D01*
X3217000Y390000D01*
X3198330Y384000D01*
X3184330Y372000D01*
X3175000Y351000D01*
X3172660Y330000D01*
X3175000Y309000D01*
X3184330Y291000D01*
X3198330Y276000D01*
X3217000Y270000D01*
X3233330Y276000D01*
X3247330Y288000D01*
G01X3422000Y270000D02*
Y390000D01*
G01Y369000D02*
X3412670Y381000D01*
X3398660Y387000D01*
X3382330Y390000D01*
X3366000Y384000D01*
X3352000Y372000D01*
X3342660Y354000D01*
X3338000Y330000D01*
X3342660Y306000D01*
X3352000Y288000D01*
X3366000Y276000D01*
X3382330Y270000D01*
X3398660Y273000D01*
X3412670Y282000D01*
X3422000Y293990D01*
G01X3592000Y450000D02*
Y270000D01*
G01Y296990D02*
X3582670Y282000D01*
X3568660Y273000D01*
X3552330Y270000D01*
X3533670Y276000D01*
X3519670Y291000D01*
X3510330Y309000D01*
X3508000Y330000D01*
X3510330Y351000D01*
X3519670Y369000D01*
X3533670Y384000D01*
X3552330Y390000D01*
X3568660Y387000D01*
X3580330Y381000D01*
X3592000Y369000D01*
G01X3685000Y351000D02*
X3759670D01*
X3752670Y372000D01*
X3741000Y384000D01*
X3724670Y390000D01*
X3708330Y387000D01*
X3694330Y378000D01*
X3685000Y357000D01*
X3680330Y339000D01*
Y321000D01*
X3685000Y303000D01*
X3696670Y285000D01*
X3710670Y273000D01*
X3727000Y270000D01*
X3743330Y276000D01*
X3759670Y293990D01*
G01X3820000Y270000D02*
Y390000D01*
G01Y357000D02*
X3827000Y372000D01*
X3838670Y384000D01*
X3855000Y390000D01*
X3871330Y384000D01*
X3883000Y372000D01*
X3890000Y357000D01*
Y270000D01*
G01Y357000D02*
X3897000Y372000D01*
X3908660Y384000D01*
X3925000Y390000D01*
X3941330Y384000D01*
X3953000Y372000D01*
X3960000Y354000D01*
Y270000D01*
G01X4011000Y216000D02*
X4025000Y210000D01*
X4043670Y216000D01*
X4055330Y228000D01*
X4064670Y243000D01*
X4078660Y291000D01*
X4109000Y390000D01*
G01X4034330D02*
X4078660Y291000D01*
G54D19*
G01X1318060Y1309500D02*
X1189320D01*
G01X1318060Y1436500D02*
X1189320D01*
G01X1318060Y1563500D02*
X1189320D01*
G01X1318060Y3836500D02*
X1189320D01*
G01X1318060Y3963500D02*
X1189320D01*
G01X1318060Y4090500D02*
X1189320D01*
G01X1318060Y1690500D02*
X1446800D01*
G01X1318060Y3709500D02*
X1446800D01*
M02*
