G04 ================== begin FILE IDENTIFICATION RECORD ==================*
G04 Layout Name:  ISL6236A PCB V1I1.brd*
G04 Film Name:    ISL6236A_V1I1_06-L3*
G04 File Format:  Gerber RS274X*
G04 File Origin:  Cadence Allegro 17.2-S025*
G04 Origin Date:  Wed Feb 21 15:58:05 2018*
G04 *
G04 Layer:  ETCH/L3*
G04 Layer:  PIN/L3*
G04 Layer:  VIA CLASS/L3*
G04 *
G04 Offset:    (0.0000 0.0000)*
G04 Mirror:    No*
G04 Mode:      Positive*
G04 Rotation:  0*
G04 FullContactRelief:  No*
G04 UndefLineWidth:     0.0000*
G04 ================== end FILE IDENTIFICATION RECORD ====================*
%FSLAX25Y25*MOMM*%
%IR0*IPPOS*OFA0.00000B0.00000*MIA0B0*SFA1.00000B1.00000*%
%ADD11C,.6*%
%ADD10C,7.4*%
%ADD12C,.2*%
%ADD13C,1.*%
G75*
%LPD*%
G75*
G54D10*
X400000Y400000D03*
Y4600000D03*
X4600000Y400000D03*
Y4600000D03*
G54D11*
X1189320Y1309500D03*
Y4090500D03*
X1250000Y2470000D03*
X1446800Y1690500D03*
Y3709500D03*
X2010000Y1440000D03*
X1985000Y1865000D03*
Y3125000D03*
X2010000Y3830000D03*
X2100000Y2330000D03*
X2140000Y2660000D03*
X2350000Y2180000D03*
X2280000Y2840000D03*
X2300000Y3110000D03*
X2450000Y2090000D03*
X2560000Y2880000D03*
X3005000Y2305000D03*
X3095000Y1955000D03*
X3810000Y1190000D03*
X3800000Y3810000D03*
G54D12*
G01X2300000Y3110000D02*
X2420000Y2990000D01*
Y2750000D01*
X2490000Y2680000D01*
X3100000D01*
X3200000Y2580000D01*
Y2180000D01*
X3110000Y2090000D01*
X2450000D01*
G54D13*
G01X1189320Y1309500D02*
X1203750D01*
X1310000Y1415750D01*
Y2103210D01*
X1426790Y2220000D01*
X1990000D01*
X2100000Y2330000D01*
G01X2280000Y2840000D02*
X2170000Y2950000D01*
X1830000D01*
X1720000Y3060000D01*
Y3920000D01*
X1549500Y4090500D01*
X1189320D01*
G01X3005000Y2305000D02*
X2810000Y2500000D01*
X2131430D01*
X2101430Y2470000D01*
X1250000D01*
G01X2350000Y2180000D02*
X2170000Y2000000D01*
X1756300D01*
X1446800Y1690500D01*
G01X2140000Y2660000D02*
X2069280Y2730720D01*
X1649280D01*
X1446800Y2933200D01*
Y3709500D01*
G01X2010000Y1440000D02*
Y1540000D01*
X1985000Y1565000D01*
Y1865000D01*
G01Y3125000D02*
Y3705000D01*
X2010000Y3730000D01*
Y3830000D01*
G01X2560000Y2880000D02*
X3030000Y3350000D01*
X3340000D01*
X3800000Y3810000D01*
G01X3095000Y1955000D02*
X3810000Y1240000D01*
Y1190000D01*
M02*
